<svg width="137" height="24" viewBox="0 0 137 24" fill="none" xmlns="http://www.w3.org/2000/svg">
<path d="M130.442 16.4738C129.29 16.4738 128.386 16.111 127.73 15.3855C127.074 14.66 126.745 13.6178 126.745 12.2589C126.745 10.7963 127.068 9.66777 127.713 8.87316C128.369 8.07855 129.308 7.68125 130.528 7.68125C131.162 7.68125 131.674 7.76186 132.066 7.92309C132.457 8.08431 132.82 8.3607 133.154 8.75224V7.04211C133.154 6.78876 133.108 6.6045 133.016 6.48934C132.935 6.37418 132.768 6.3166 132.515 6.3166H132.204V4.79648H135.382V14.1418C135.382 14.3951 135.423 14.5679 135.503 14.66C135.595 14.7521 135.751 14.7982 135.97 14.7982H136.246V16.2319H133.655L133.517 15.0746C133.148 15.5582 132.722 15.9152 132.239 16.1455C131.755 16.3644 131.156 16.4738 130.442 16.4738ZM130.995 15.1091C131.64 15.1091 132.146 14.8615 132.515 14.3663C132.883 13.8711 133.068 13.2493 133.068 12.5007V11.6543C133.068 10.8597 132.895 10.2378 132.549 9.78869C132.204 9.33956 131.703 9.115 131.047 9.115C130.321 9.115 129.791 9.37411 129.457 9.89233C129.135 10.399 128.974 11.1764 128.974 12.2243C128.974 13.2377 129.129 13.9748 129.44 14.4354C129.763 14.8845 130.281 15.1091 130.995 15.1091Z" fill="url(#paint0_linear_456_618)"/>
<path d="M121.955 14.7291H122.404C122.646 14.7291 122.818 14.6773 122.922 14.5736C123.026 14.4584 123.077 14.2857 123.077 14.0554V7.02483C123.077 6.77148 123.031 6.58723 122.939 6.47207C122.859 6.3569 122.692 6.29932 122.438 6.29932H121.955V4.79648H125.34V14.0899C125.34 14.3087 125.386 14.47 125.479 14.5736C125.582 14.6773 125.749 14.7291 125.979 14.7291H126.429V16.2319H121.955V14.7291Z" fill="url(#paint1_linear_456_618)"/>
<path d="M117.049 16.4911C115.667 16.4911 114.579 16.1283 113.784 15.4028C113.001 14.6658 112.609 13.589 112.609 12.1725C112.609 10.6754 112.984 9.55263 113.732 8.80409C114.481 8.05555 115.546 7.68127 116.928 7.68127C118.264 7.68127 119.277 8.05555 119.968 8.80409C120.671 9.54112 121.022 10.543 121.022 11.8098V12.6217H114.855C114.855 13.4278 115.045 14.0209 115.425 14.4009C115.805 14.7694 116.352 14.9537 117.066 14.9537C117.78 14.9537 118.35 14.8615 118.776 14.6773V14.0727H120.728V15.3855C119.853 16.1225 118.627 16.4911 117.049 16.4911ZM118.776 11.3261C118.776 10.6121 118.621 10.0824 118.31 9.73689C117.999 9.39141 117.527 9.21867 116.893 9.21867C116.237 9.21867 115.73 9.40292 115.373 9.77144C115.028 10.1284 114.855 10.6467 114.855 11.3261H118.776Z" fill="url(#paint2_linear_456_618)"/>
<path d="M108.412 4.8656H110.796V6.69665H108.412V4.8656ZM107.375 14.7291H107.825C108.066 14.7291 108.239 14.6773 108.343 14.5736C108.446 14.4585 108.498 14.2857 108.498 14.0554V10.1687C108.498 9.91539 108.452 9.73113 108.36 9.61597C108.28 9.50081 108.113 9.44323 107.859 9.44323H107.375V7.94039H110.761V14.09C110.761 14.3088 110.807 14.47 110.899 14.5736C111.003 14.6773 111.17 14.7291 111.4 14.7291H111.849V16.2319H107.375V14.7291Z" fill="url(#paint3_linear_456_618)"/>
<path d="M97.0217 14.7291H97.4709C97.7127 14.7291 97.8854 14.6773 97.9891 14.5736C98.0927 14.4584 98.1445 14.2857 98.1445 14.0554V7.02483C98.1445 6.77148 98.0985 6.58723 98.0063 6.47207C97.9257 6.3569 97.7588 6.29932 97.5054 6.29932H97.0217V4.79648H100.183V8.71769C100.62 8.32615 101.047 8.05552 101.461 7.90581C101.887 7.7561 102.411 7.68125 103.033 7.68125C103.954 7.68125 104.628 7.92885 105.054 8.42404C105.48 8.90771 105.693 9.62171 105.693 10.566V14.0899C105.693 14.3087 105.739 14.47 105.832 14.5736C105.935 14.6773 106.102 14.7291 106.332 14.7291H106.782V16.2319H103.43V10.5833C103.43 10.0766 103.321 9.71383 103.102 9.49503C102.895 9.26471 102.561 9.14955 102.1 9.14955C101.605 9.14955 101.196 9.2935 100.874 9.5814C100.563 9.85778 100.407 10.2493 100.407 10.756V14.0899C100.407 14.3087 100.454 14.47 100.546 14.5736C100.649 14.6773 100.816 14.7291 101.047 14.7291H101.496V16.2319H97.0217V14.7291Z" fill="url(#paint4_linear_456_618)"/>
<path d="M91.9952 16.491C91.1315 16.491 90.3254 16.3701 89.5768 16.1283C88.8283 15.8864 88.1892 15.5582 87.6594 15.1437V13.2953H89.9569V14.4872C90.5097 14.7982 91.1949 14.9536 92.0125 14.9536C93.2332 14.9536 93.8436 14.4642 93.8436 13.4853C93.8436 13.1514 93.7514 12.875 93.5672 12.6562C93.3829 12.4259 93.1353 12.2301 92.8244 12.0689C92.5134 11.9076 92.0413 11.6946 91.4079 11.4297C90.5557 11.0842 89.8705 10.756 89.3523 10.4451C88.8456 10.1342 88.4483 9.77141 88.1604 9.35683C87.884 8.93074 87.7458 8.42404 87.7458 7.83672C87.7458 6.83482 88.1373 6.08052 88.9204 5.57381C89.715 5.05559 90.7285 4.79648 91.9607 4.79648C93.4808 4.79648 94.7879 5.23409 95.8819 6.10931V7.81944H93.5672V6.7139C93.1296 6.46055 92.5538 6.33387 91.8398 6.33387C90.6075 6.33387 89.9914 6.81179 89.9914 7.76762C89.9914 8.10159 90.1066 8.39525 90.3369 8.6486C90.5672 8.89044 90.8379 9.09197 91.1488 9.25319C91.4712 9.41442 91.9031 9.60443 92.4443 9.82324C93.3772 10.2033 94.0796 10.5257 94.5518 10.7906C95.0355 11.0555 95.4097 11.3894 95.6746 11.7925C95.951 12.1955 96.0892 12.7253 96.0892 13.3817C96.0892 13.9805 95.928 14.516 95.6055 14.9882C95.2946 15.4488 94.8282 15.8173 94.2063 16.0937C93.596 16.3586 92.8589 16.491 91.9952 16.491Z" fill="url(#paint5_linear_456_618)"/>
<path d="M80.9828 19.0994L82.3302 15.1782L79.1172 6.17844H80.6546L82.9693 13.5199H83.0384L85.3531 6.17844H86.8905L83.5048 15.5928L82.5029 19.0994H80.9828Z" fill="#0F0F12"/>
<path d="M74.0254 16.2319V6.17839H74.9409L75.1309 7.19756H75.2346C75.2346 7.19756 75.3209 7.13422 75.4937 7.00755C75.6779 6.88087 75.914 6.73692 76.2019 6.57569C76.4898 6.41447 76.795 6.27052 77.1175 6.14384C77.4514 6.01717 77.7624 5.95383 78.0503 5.95383C78.223 5.95383 78.3842 5.9711 78.5339 6.00565C78.6836 6.02868 78.7585 6.0402 78.7585 6.0402L78.6376 7.42212C78.6376 7.42212 78.5627 7.41637 78.413 7.40485C78.2633 7.39333 78.1251 7.38758 77.9984 7.38758C77.676 7.38758 77.3478 7.43364 77.0138 7.52577C76.6914 7.6179 76.3919 7.73306 76.1156 7.87125C75.8392 8.00944 75.6204 8.14188 75.4591 8.26855V16.2319H74.0254Z" fill="#0F0F12"/>
<path d="M67.6634 16.4738C66.8687 16.4738 66.1663 16.3068 65.5559 15.9728C64.9571 15.6273 64.4907 15.0688 64.1567 14.2972C63.8227 13.5141 63.6558 12.4777 63.6558 11.1879C63.6558 9.84053 63.8285 8.78681 64.174 8.02675C64.531 7.26669 65.0089 6.73119 65.6077 6.42026C66.2066 6.09781 66.8803 5.93658 67.6288 5.93658C68.3774 5.93658 69.0107 6.08629 69.529 6.38571C70.0587 6.68513 70.4618 7.18608 70.7381 7.88856C71.0145 8.57952 71.1527 9.51232 71.1527 10.687V11.7752H64.5195L65.1932 11.5161C65.1471 12.2762 65.1644 12.8865 65.245 13.3472C65.3371 13.7963 65.4465 14.1303 65.5732 14.3491C65.7114 14.5679 65.8265 14.7233 65.9187 14.8155C66.0799 14.9537 66.2757 15.0573 66.506 15.1264C66.7363 15.1955 67.0185 15.23 67.3524 15.23C67.6864 15.23 68.0146 15.207 68.337 15.1609C68.6595 15.1034 68.9589 15.04 69.2353 14.9709C69.5117 14.8903 69.7593 14.8155 69.9781 14.7464C70.1969 14.6658 70.3754 14.6082 70.5136 14.5736L70.8763 15.731C70.7727 15.7771 70.5712 15.8634 70.2717 15.9901C69.9723 16.1053 69.5981 16.2147 69.1489 16.3183C68.7113 16.4219 68.2161 16.4738 67.6634 16.4738ZM65.1932 11.257L64.5195 10.6351L70.3408 10.5142L69.6844 11.1534C69.6959 10.3357 69.6787 9.63324 69.6326 9.04592C69.5981 8.4586 69.4829 8.00947 69.2871 7.69854C69.2065 7.57186 69.0683 7.4567 68.8725 7.35306C68.6768 7.2379 68.2967 7.18032 67.7325 7.18032C67.1451 7.18032 66.7018 7.24366 66.4023 7.37033C66.1144 7.49701 65.8899 7.66399 65.7287 7.87128C65.3026 8.43557 65.1241 9.56414 65.1932 11.257Z" fill="#0F0F12"/>
<path d="M57.7745 19.324C57.3139 19.324 56.882 19.3009 56.479 19.2549C56.0759 19.2088 55.7247 19.1512 55.4253 19.0821C55.1258 19.0245 54.8898 18.9727 54.717 18.9267C54.5443 18.8806 54.4579 18.8576 54.4579 18.8576L54.6306 17.562C55.2755 17.6772 55.9377 17.7751 56.6172 17.8557C57.2966 17.9478 57.953 17.9939 58.5864 17.9939C59.2313 17.9939 59.6632 17.942 59.882 17.8384C60.1008 17.7348 60.2102 17.5735 60.2102 17.3547C60.2102 17.228 60.1814 17.1129 60.1238 17.0092C60.0662 16.9056 59.9626 16.7962 59.8129 16.681C59.6632 16.5774 59.4444 16.4565 59.1565 16.3183C58.8686 16.1801 58.4885 16.0131 58.0164 15.8173C57.36 15.5409 56.882 15.3452 56.5826 15.23C56.2947 15.1033 56.1105 15.0227 56.0298 14.9882C55.9607 14.9421 55.9262 14.9018 55.9262 14.8673C55.9262 14.8557 55.955 14.7809 56.0126 14.6427C56.0702 14.493 56.145 14.3145 56.2371 14.1072C56.3293 13.8999 56.4214 13.6869 56.5135 13.4681C56.6056 13.2377 56.6863 13.042 56.7554 12.8807C55.9953 12.731 55.3792 12.3625 54.907 11.7752C54.4464 11.1879 54.2161 10.4739 54.2161 9.63321C54.2161 8.68889 54.4003 7.95186 54.7688 7.42212C55.1374 6.89239 55.621 6.51811 56.2199 6.29931C56.8302 6.06899 57.4866 5.95383 58.1891 5.95383C58.4194 5.95383 58.6901 5.95959 59.001 5.9711C59.3234 5.98262 59.6459 5.99989 59.9683 6.02292C60.3023 6.04596 60.6075 6.06899 60.8839 6.09202C61.1718 6.11505 61.4021 6.13233 61.5748 6.14384C61.7476 6.15536 61.8339 6.16112 61.8339 6.16112V7.07664L60.6939 7.24938C60.6939 7.23787 60.7399 7.35879 60.832 7.61214C60.9357 7.85398 61.0336 8.15915 61.1257 8.52767C61.2294 8.88466 61.2812 9.2359 61.2812 9.58138C61.2812 10.2378 61.1372 10.8251 60.8493 11.3433C60.5614 11.85 60.1468 12.2531 59.6056 12.5525C59.0643 12.8404 58.4137 12.9844 57.6536 12.9844C57.6191 13.1686 57.5788 13.3874 57.5327 13.6408C57.4866 13.8826 57.4636 14.0266 57.4636 14.0726C57.4636 14.0957 57.4981 14.1302 57.5672 14.1763C57.6479 14.2108 57.7976 14.2742 58.0164 14.3663C58.2467 14.4469 58.5807 14.5851 59.0183 14.7809C59.6862 15.0573 60.1987 15.3279 60.5557 15.5928C60.9127 15.8576 61.1603 16.1167 61.2984 16.3701C61.4366 16.6235 61.5057 16.8768 61.5057 17.1302C61.5057 17.5908 61.3445 17.9823 61.0221 18.3048C60.7111 18.6388 60.2735 18.8921 59.7092 19.0649C59.1565 19.2376 58.5116 19.324 57.7745 19.324ZM57.74 11.7406C58.2582 11.7406 58.6728 11.6773 58.9837 11.5506C59.3062 11.424 59.5365 11.2051 59.6747 10.8942C59.8244 10.5718 59.8992 10.1226 59.8992 9.54684C59.8992 8.89042 59.8589 8.36644 59.7783 7.97489C59.6977 7.57183 59.6229 7.35303 59.5538 7.31848C59.5307 7.29545 59.4328 7.27817 59.2601 7.26666C59.0874 7.24363 58.8973 7.23211 58.6901 7.23211C58.4828 7.22059 58.2985 7.21484 58.1373 7.21484C57.9876 7.20332 57.9127 7.19756 57.9127 7.19756C57.3715 7.19756 56.9281 7.2609 56.5826 7.38758C56.2487 7.51425 56.0011 7.74457 55.8398 8.07854C55.6901 8.4125 55.6153 8.90194 55.6153 9.54684C55.6153 10.399 55.7765 10.9806 56.0989 11.2915C56.4329 11.5909 56.9799 11.7406 57.74 11.7406Z" fill="#0F0F12"/>
<path d="M48.6714 16.2319V6.17839H49.5869L49.7769 7.19756H49.8806C49.8806 7.19756 49.9669 7.13422 50.1397 7.00755C50.3239 6.88087 50.56 6.73692 50.8479 6.57569C51.1358 6.41447 51.441 6.27052 51.7635 6.14384C52.0974 6.01717 52.4084 5.95383 52.6963 5.95383C52.869 5.95383 53.0302 5.9711 53.1799 6.00565C53.3296 6.02868 53.4045 6.0402 53.4045 6.0402L53.2836 7.42212C53.2836 7.42212 53.2087 7.41637 53.059 7.40485C52.9093 7.39333 52.7711 7.38758 52.6444 7.38758C52.322 7.38758 51.9938 7.43364 51.6598 7.52577C51.3374 7.6179 51.0379 7.73306 50.7616 7.87125C50.4852 8.00944 50.2664 8.14188 50.1051 8.26855V16.2319H48.6714Z" fill="#0F0F12"/>
<path d="M41.9484 16.4565C40.9925 16.4565 40.2382 16.2434 39.6855 15.8173C39.1442 15.3912 38.7584 14.7866 38.5281 14.0035C38.2978 13.2205 38.1826 12.2877 38.1826 11.2051C38.1826 10.1226 38.2978 9.18984 38.5281 8.40675C38.7584 7.62366 39.1442 7.01906 39.6855 6.59297C40.2382 6.16687 40.9925 5.95383 41.9484 5.95383C42.9042 5.95383 43.6528 6.16687 44.194 6.59297C44.7468 7.01906 45.1383 7.62366 45.3686 8.40675C45.599 9.18984 45.7141 10.1226 45.7141 11.2051C45.7141 12.2877 45.599 13.2205 45.3686 14.0035C45.1383 14.7866 44.7468 15.3912 44.194 15.8173C43.6528 16.2434 42.9042 16.4565 41.9484 16.4565ZM41.9484 15.2127C42.386 15.2127 42.7487 15.1609 43.0366 15.0573C43.3361 14.9536 43.5721 14.7636 43.7449 14.4872C43.9291 14.2108 44.0558 13.8078 44.1249 13.278C44.2055 12.7483 44.2458 12.0573 44.2458 11.2051C44.2458 10.353 44.2055 9.662 44.1249 9.13226C44.0558 8.60252 43.9291 8.19946 43.7449 7.92307C43.5721 7.63517 43.3361 7.44516 43.0366 7.35303C42.7487 7.24938 42.386 7.19756 41.9484 7.19756C41.5108 7.19756 41.1422 7.24938 40.8428 7.35303C40.5549 7.44516 40.3188 7.63517 40.1346 7.92307C39.9619 8.19946 39.8352 8.60252 39.7546 9.13226C39.6739 9.662 39.6336 10.353 39.6336 11.2051C39.6336 12.0573 39.6739 12.7483 39.7546 13.278C39.8352 13.8078 39.9619 14.2108 40.1346 14.4872C40.3188 14.7636 40.5549 14.9536 40.8428 15.0573C41.1422 15.1609 41.5108 15.2127 41.9484 15.2127Z" fill="#0F0F12"/>
<path d="M33.1228 16.2319V7.87129H32V6.99031L33.1228 6.76575C33.1343 5.85598 33.261 5.13047 33.5028 4.58922C33.7447 4.03644 34.0844 3.63338 34.522 3.38003C34.9711 3.12668 35.4951 3 36.094 3C36.2091 3 36.3416 3.00576 36.4913 3.01727C36.641 3.01727 36.7734 3.02303 36.8886 3.03455C37.0037 3.03455 37.0613 3.03455 37.0613 3.03455L36.9577 4.24373C36.9577 4.24373 36.8771 4.24373 36.7158 4.24373C36.5661 4.23222 36.3934 4.22646 36.1976 4.22646C36.0134 4.21494 35.8636 4.20919 35.7485 4.20919C35.4375 4.20919 35.1957 4.27252 35.023 4.3992C34.8502 4.51436 34.7293 4.7562 34.6602 5.12471C34.5911 5.48171 34.5508 6.02872 34.5393 6.76575H36.7504V7.92311H34.5566V16.2319H33.1228Z" fill="#0F0F12"/>
<path d="M21.0547 10.4173C21.0824 10.6112 21.0824 10.7496 21.1101 10.9158C21.1378 11.885 20.9163 12.7989 20.3347 13.5742C20.0301 14.0173 19.6424 14.3219 19.1717 14.5712C18.3132 15.0696 17.4271 15.5681 16.5686 16.0665C16.5132 16.0942 16.4578 16.1773 16.4578 16.2327C16.4578 17.3404 16.4578 18.4481 16.4301 19.5558C16.3748 21.4388 15.2671 22.6296 13.8271 23.128C13.7994 23.128 13.7717 23.128 13.7163 23.1557C13.7163 23.128 13.7163 23.1004 13.7163 23.1004C13.7163 23.0727 13.7163 23.045 13.7163 22.9896C13.7163 20.2481 13.7163 17.5065 13.7163 14.7373C13.7163 14.6265 13.744 14.5712 13.8548 14.5158C16.1532 13.1865 18.4794 11.8573 20.7778 10.5281C20.8609 10.5558 20.9717 10.5004 21.0547 10.4173Z" fill="url(#paint6_linear_456_618)"/>
<path d="M24.7932 1.002C24.5717 1.14046 24.3502 1.22354 24.1563 1.362C21.9133 2.63584 19.6979 3.90968 17.4548 5.21121C17.3994 5.2389 17.3164 5.2666 17.2333 5.21121C14.8518 3.8266 12.4979 2.46969 10.1164 1.08508C10.0887 1.05738 10.061 1.05738 10.0056 1.02969C10.0333 1.002 10.061 0.974309 10.061 0.974309C10.6425 0.503542 11.2795 0.198926 11.9995 0.115849C12.8579 -0.0226119 13.7164 0.143545 14.4918 0.58662C15.4056 1.08508 16.2917 1.63892 17.2056 2.13738C17.261 2.16507 17.3164 2.16507 17.3717 2.13738C18.3687 1.55584 19.3379 1.02969 20.3625 0.475844C20.7779 0.254307 21.1656 0.115852 21.6363 0.0327759C22.744 -0.105685 23.7133 0.198929 24.5717 0.863542C24.6271 0.918926 24.6825 0.946618 24.7932 1.002Z" fill="url(#paint7_linear_456_618)"/>
<path d="M7.48558 15.2911C7.45789 15.2911 7.4302 15.2912 7.4302 15.2635C6.59943 14.9588 5.93481 14.4604 5.40866 13.685C5.07636 13.1589 4.88251 12.5773 4.82712 11.9404C4.82712 11.8019 4.82712 11.6635 4.82712 11.525C4.82712 10.5558 4.82712 9.58656 4.82712 8.61733C4.82712 8.50656 4.79943 8.47887 4.71636 8.45118C3.77482 7.86964 2.8056 7.34349 1.86406 6.76195C0.92253 6.18042 0.368688 5.37735 0.091766 4.32504C-0.0190028 3.88197 -0.0190062 3.49428 0.0363782 3.0512C0.0363782 2.94043 0.0640721 2.82966 0.0640721 2.71889C0.0640721 2.6912 0.0640738 2.66351 0.091766 2.60812C0.119458 2.63582 0.147149 2.63582 0.202533 2.66351C2.58406 4.04812 4.99328 5.40504 7.37481 6.78965C7.43019 6.81734 7.48558 6.90042 7.48558 6.9558C7.48558 9.69733 7.48558 12.4112 7.48558 15.1527C7.48558 15.1804 7.48558 15.2081 7.48558 15.2911Z" fill="url(#paint8_linear_456_618)"/>
<path d="M15.4608 6.23583C15.4331 6.26353 15.4054 6.29122 15.35 6.3466C14.7685 6.81737 14.1039 7.12198 13.4115 7.20506C12.5808 7.34352 11.7777 7.17737 11.03 6.76198C9.23003 5.70968 7.37465 4.65738 5.57466 3.60508C4.13466 2.77431 2.69466 1.94354 1.22698 1.08508C1.19929 1.05739 1.1716 1.05739 1.11621 1.0297C1.11621 1.0297 1.11621 1.00201 1.1439 1.00201C1.64236 0.586627 2.2239 0.309704 2.86082 0.14355C3.19313 0.088166 3.49775 0.0050911 3.83005 0.0327833C4.46697 0.0604755 5.04851 0.198933 5.60235 0.531239C6.8485 1.22354 8.03926 1.97124 9.28541 2.66354C10.8916 3.60508 12.47 4.51892 14.0762 5.43276C14.5192 5.70968 14.99 5.95891 15.4054 6.20814C15.4054 6.18045 15.4331 6.20814 15.4608 6.23583Z" fill="url(#paint9_linear_456_618)"/>
<path d="M11.9162 23.1281C11.7777 23.1004 11.6946 23.0173 11.5839 22.9896C10.8362 22.6573 10.2546 22.1866 9.83924 21.4942C9.53462 20.9958 9.34078 20.4143 9.31309 19.8327C9.2854 19.5558 9.31309 19.3066 9.31309 19.0573C9.31309 17.9496 9.31309 16.842 9.31309 15.7343C9.31309 13.242 9.31309 10.7497 9.34078 8.25737C9.34078 8.22968 9.34078 8.20199 9.34078 8.14661C9.36847 8.14661 9.39616 8.14661 9.39616 8.14661C10.67 8.64507 11.5285 9.53121 11.8885 10.8604C11.9438 11.1651 11.9992 11.4974 11.9992 11.802C11.9992 13.5189 11.9992 15.1804 11.9992 16.8973C11.9992 17.7281 11.9992 18.5589 11.9992 19.4173C11.9992 20.6358 11.9992 21.8265 11.9992 23.045C11.9162 23.0173 11.9162 23.0727 11.9162 23.1281Z" fill="url(#paint10_linear_456_618)"/>
<path d="M25.5686 2.802C25.5686 2.85739 25.5962 2.91276 25.5962 2.96815C25.7624 4.2143 25.4578 5.2666 24.6547 6.20814C24.3778 6.51275 24.0455 6.78967 23.6855 6.98352C20.9993 8.53428 18.3686 10.0574 15.6824 11.6081C15.1009 11.9404 14.5747 12.245 14.0209 12.5773C13.9932 12.605 13.9655 12.605 13.9101 12.6327C13.9101 12.522 13.8824 12.4666 13.8824 12.3558C13.7717 11.2481 14.0209 10.2235 14.7132 9.33735C15.0178 8.97735 15.3778 8.67274 15.7932 8.42351C19.0055 6.54044 22.2732 4.71276 25.4855 2.82969C25.4855 2.82969 25.5132 2.82969 25.5686 2.802Z" fill="url(#paint11_linear_456_618)"/>
<defs>
<linearGradient id="paint0_linear_456_618" x1="131.496" y1="4.79648" x2="131.496" y2="16.4738" gradientUnits="userSpaceOnUse">
<stop stop-color="#31BBD0"/>
<stop offset="1" stop-color="#3B5FF0"/>
</linearGradient>
<linearGradient id="paint1_linear_456_618" x1="124.192" y1="4.79648" x2="124.192" y2="16.2319" gradientUnits="userSpaceOnUse">
<stop stop-color="#31BBD0"/>
<stop offset="1" stop-color="#3B5FF0"/>
</linearGradient>
<linearGradient id="paint2_linear_456_618" x1="116.816" y1="7.68127" x2="116.816" y2="16.4911" gradientUnits="userSpaceOnUse">
<stop stop-color="#31BBD0"/>
<stop offset="1" stop-color="#3B5FF0"/>
</linearGradient>
<linearGradient id="paint3_linear_456_618" x1="109.612" y1="4.8656" x2="109.612" y2="16.2319" gradientUnits="userSpaceOnUse">
<stop stop-color="#31BBD0"/>
<stop offset="1" stop-color="#3B5FF0"/>
</linearGradient>
<linearGradient id="paint4_linear_456_618" x1="101.902" y1="4.79648" x2="101.902" y2="16.2319" gradientUnits="userSpaceOnUse">
<stop stop-color="#31BBD0"/>
<stop offset="1" stop-color="#3B5FF0"/>
</linearGradient>
<linearGradient id="paint5_linear_456_618" x1="91.8743" y1="4.79648" x2="91.8743" y2="16.491" gradientUnits="userSpaceOnUse">
<stop stop-color="#31BBD0"/>
<stop offset="1" stop-color="#3B5FF0"/>
</linearGradient>
<linearGradient id="paint6_linear_456_618" x1="13.7271" y1="16.8123" x2="21.1354" y2="16.8123" gradientUnits="userSpaceOnUse">
<stop stop-color="#3B5FF0"/>
<stop offset="1" stop-color="#31BBD0"/>
</linearGradient>
<linearGradient id="paint7_linear_456_618" x1="10.0081" y1="2.6259" x2="24.7844" y2="2.6259" gradientUnits="userSpaceOnUse">
<stop offset="3.19667e-07" stop-color="#31BBD0"/>
<stop offset="1" stop-color="#3B5FF0"/>
</linearGradient>
<linearGradient id="paint8_linear_456_618" x1="3.5" y1="12.5" x2="4" y2="4.5" gradientUnits="userSpaceOnUse">
<stop offset="3.35651e-07" stop-color="#31BBD0"/>
<stop offset="1" stop-color="#3B5FF0"/>
</linearGradient>
<linearGradient id="paint9_linear_456_618" x1="1.1284" y1="3.64565" x2="15.4694" y2="3.64565" gradientUnits="userSpaceOnUse">
<stop offset="3.35651e-07" stop-color="#31BBD0"/>
<stop offset="1" stop-color="#3B5FF0"/>
</linearGradient>
<linearGradient id="paint10_linear_456_618" x1="10" y1="23" x2="10" y2="9.5" gradientUnits="userSpaceOnUse">
<stop offset="0.00186217" stop-color="#31BBD0"/>
<stop offset="1" stop-color="#3B5FF0"/>
</linearGradient>
<linearGradient id="paint11_linear_456_618" x1="13.8389" y1="7.71515" x2="25.6332" y2="7.71515" gradientUnits="userSpaceOnUse">
<stop stop-color="#3B5FF0"/>
<stop offset="1" stop-color="#31BBD0"/>
</linearGradient>
</defs>
</svg>
